<svg width="49" height="39" viewBox="0 0 49 39" fill="none" xmlns="http://www.w3.org/2000/svg">
<path d="M44.1801 0.5H4.25719C3.60187 0.5 2.98836 0.664351 2.43332 0.935246L24.1241 23.0622L28.9857 18.296C28.9857 18.296 28.9861 18.2956 28.9861 18.2954C28.9862 18.2952 28.9866 18.295 28.9866 18.295L46.0047 0.935632C45.4495 0.664544 44.8357 0.5 44.1801 0.5Z" fill="#FD5825"/>
<path d="M48.0112 2.98291L31.9964 19.319L48.0107 35.6554C48.2762 35.0892 48.4373 34.4633 48.4373 33.7948V4.84279C48.4373 4.17467 48.2766 3.54892 48.0112 2.98291Z" fill="#FD5825"/>
<path d="M0.426665 2.98218C0.161111 3.54838 0 4.17423 0 4.84273V33.7948C0 34.4629 0.160922 35.0888 0.426286 35.6548L16.4412 19.3187L0.426665 2.98218Z" fill="#FD5825"/>
<path d="M29.9897 21.3662L25.1274 26.1329C24.8502 26.4157 24.4871 26.5571 24.1241 26.5571C23.7612 26.5571 23.398 26.4157 23.1209 26.1329L18.4478 21.366L2.43265 37.7022C2.98778 37.9732 3.60167 38.1378 4.25718 38.1378H44.1801C44.8355 38.1378 45.449 37.9734 46.004 37.7025L29.9897 21.3662Z" fill="#FD5825"/>
</svg>
