<svg width="29" height="30" viewBox="0 0 29 30" fill="none" xmlns="http://www.w3.org/2000/svg">
<path d="M3.72229 0.613525H25.278C27.3251 0.613525 29 2.12911 29 4.33548V25.8916C29 28.0979 27.3251 29.6135 25.278 29.6135H3.72229C1.6746 29.6135 0 28.0979 0 25.8916V4.33548C0 2.12911 1.6746 0.613525 3.72229 0.613525ZM21.1254 3.83555C20.4073 3.83555 19.8204 4.42273 19.8204 5.14121V8.26617C19.8204 8.98436 20.4073 9.57183 21.1254 9.57183H24.4032C25.1214 9.57183 25.7089 8.98436 25.7089 8.26617V5.14121C25.7089 4.42273 25.1214 3.83555 24.4032 3.83555H21.1254ZM25.7226 12.8775H23.1702C23.4116 13.666 23.5424 14.5012 23.5424 15.3653C23.5424 20.1889 19.5059 24.0991 14.5277 24.0991C9.54975 24.0991 5.51391 20.1889 5.51391 15.3653C5.51391 14.5006 5.64433 13.6657 5.88611 12.8775H3.22265V25.1275C3.22265 25.7615 3.74135 26.2804 4.37558 26.2804H24.5702C25.2045 26.2804 25.7232 25.7617 25.7232 25.1275V12.8775H25.7226ZM14.5274 9.40717C11.311 9.40717 8.70322 11.9336 8.70322 15.0506C8.70322 18.1675 11.311 20.6939 14.5274 20.6939C17.7441 20.6939 20.3522 18.1675 20.3522 15.0506C20.3522 11.9336 17.7444 9.40717 14.5274 9.40717Z" fill="white"/>
</svg>
