<svg width="30" height="29" viewBox="0 0 30 29" fill="none" xmlns="http://www.w3.org/2000/svg">
<path d="M3.60574 0.163574C1.61315 0.163574 0.000322373 1.66879 0 3.52088C0 5.37478 1.61283 6.8797 3.60606 6.8797C5.59381 6.8797 7.2089 5.37478 7.2089 3.52088C7.2089 1.66849 5.59349 0.163574 3.60574 0.163574Z" fill="white"/>
<path d="M6.71345 9.42725H0.49585V28.0635H6.71345V9.42725Z" fill="white"/>
<path d="M22.5419 8.96387C19.5174 8.96387 17.4893 10.5087 16.6592 11.9737H16.5761V9.42727H10.6128L10.6125 28.0632H16.8246V18.8439C16.8246 16.4134 17.3214 14.0591 20.5561 14.0591C23.7443 14.0591 23.7869 16.8389 23.7869 18.9998V28.0629H30V17.8411C30 12.8236 28.8378 8.96387 22.5419 8.96387Z" fill="white"/>
</svg>
