<svg width="38" height="54" viewBox="0 0 38 54" fill="none" xmlns="http://www.w3.org/2000/svg">
<path d="M19 0.5C8.52334 0.5 0 9.14008 0 19.7601C0 32.9399 17.0031 52.2886 17.7271 53.1059C18.407 53.8736 19.5942 53.8722 20.2729 53.1059C20.9969 52.2886 38 32.9399 38 19.7601C37.9998 9.14008 29.4766 0.5 19 0.5ZM19 29.4504C13.7289 29.4504 9.44072 25.1034 9.44072 19.7601C9.44072 14.4169 13.729 10.0699 19 10.0699C24.271 10.0699 28.5592 14.417 28.5592 19.7602C28.5592 25.1035 24.271 29.4504 19 29.4504Z" fill="#FD5825"/>
</svg>
