<svg width="40" height="41" viewBox="0 0 40 41" fill="none" xmlns="http://www.w3.org/2000/svg">
<path d="M36.7213 26.7331C34.277 26.7331 31.8769 26.3432 29.6025 25.5764C28.4881 25.1887 27.118 25.5444 26.4379 26.257L21.9487 29.714C16.7426 26.8791 13.5357 23.6088 10.7946 18.3378L14.0837 13.8777C14.9382 13.0071 15.2448 11.7354 14.8775 10.5422C14.1227 8.20994 13.7393 5.76277 13.7393 3.2682C13.7394 1.4661 12.3022 0 10.5357 0H3.20366C1.43719 0 0 1.4661 0 3.26809C0 23.9237 16.473 40.7278 36.7213 40.7278C38.4878 40.7278 39.925 39.2617 39.925 37.4597V30.0011C39.9249 28.1992 38.4877 26.7331 36.7213 26.7331Z" fill="#FD5825"/>
</svg>
